#!OML:ASF E:/inclinewalkrobotboard/Project1/Captureday1/Session1/subject1.ASF
:FULLY-SPECIFIED
:DEGREES
188
root 0 0 0 -7.6661319289872765 -8.323584289855992 -5.433668218920038
lowerback 13.641245478328408 1.9907298498373973 5.314354171044671
upperback 2.1786418587852 3.3319546780845153 1.4866813243471597
thorax -5.309760577223013 1.626526478004278 -1.9934317111203832
lowerneck -17.091567375276245 -3.791224642490639 -1.651907811435057
upperneck 19.381733389189588 -5.014030014092061 0.8839241067481156
head 8.914834482669105 -2.408071661582407 -0.053030537150631885
rclavicle 3.1391907739886487E-15 5.411446319208196E-16
rhumerus -46.889696764578986 -17.756647304728272 -74.33341367560311
rradius 25.54156000783731
rwrist -2.9690763330179344
rhand -22.386103032080957 28.36565910630396
rfingers 7.125020000000063
rthumb 4.038182601938946 -1.9745191924818073
lclavicle -4.826509611532688E-15 -6.1260545017966475E-15
lhumerus -41.675859703177935 1.971559923932384 86.05347825574731
lradius 26.812057888862267
lwrist 5.680458477249125
lhand -31.620399038687342 21.96119229295373
lfingers 7.125020000000033
lthumb -4.82410692632137 52.61740493192763
rfemur -21.35703900198081 16.38195089472923 33.91841641871363
rtibia 29.014494611844064
rfoot -10.800120339052842 -9.625173073679877
rtoes -3.673677383934809
lfemur -16.115734736418247 -3.770847988188992 -17.793680727729566
ltibia 37.3825611913733
lfoot -1.6237679781980958 -5.207587284187895
ltoes -11.125001280292155
189
root 0 0 0 -7.723685236125455 -7.718684471977708 -5.140050331343722
lowerback 13.653191790472945 1.9199994868246995 5.024622810289219
upperback 2.221843807023724 3.224448547116366 1.4611354348650973
thorax -5.264289766166268 1.5858709792931815 -1.8498577653773767
lowerneck -17.148613069742705 -3.7950558493530027 -1.6930320754997599
upperneck 19.299505384263433 -4.995707039290549 0.8857470145160535
head 8.895722965049135 -2.404944933130869 -0.04723085981974218
rclavicle 2.848372713023573E-15 -2.6207066276419446E-16
rhumerus -46.79569709848941 -17.731106444302608 -73.26858736803771
rradius 25.924540716608888
rwrist -2.7078223144011986
rhand -22.605008647814977 28.647521506379285
rfingers 7.125020000000064
rthumb 3.8304941965409753 -1.7105037730511157
lclavicle -4.860402837371994E-15 -6.541789507470317E-15
lhumerus -41.538950888163676 2.306927004871145 85.68990170896637
lradius 26.84816094171225
lwrist 4.826750530410045
lhand -32.03955653327196 21.691003146007066
lfingers 7.125020000000034
lthumb -5.222816658321861 52.424736942051965
rfemur -21.319265989808727 15.450311008820421 32.8735490929177
rtibia 31.0659163062464
rfoot -9.377669625594146 -10.346597337668374
rtoes -4.302438139366245
lfemur -9.547032595416134 -6.880044093693167 -18.94174273614692
ltibia 21.15252736921721
lfoot -7.9029915028300195 -0.5171478974553452
ltoes -6.8308476089654935
190
root 0 0 0 -7.77408052710976 -6.926728064529607 -4.768507431248668
lowerback 13.63979434444451 1.8162779179246469 4.664666750389531
upperback 2.2602061256257144 3.0658838792350975 1.4395486186354627
thorax -5.207063292191263 1.5194634747938403 -1.654564877889971
lowerneck -17.23004993176615 -3.7799571893799477 -1.7388978687106162
upperneck 19.18369074604469 -4.9440424508119944 0.8764600937538605
head 8.869502834792007 -2.3871318906825048 -0.040953760565996644
rclavicle 3.1588688009353845E-15 -1.8599323404764895E-16
rhumerus -47.01646777254605 -17.766589316316306 -72.90164217760652
rradius 25.96525674063122
rwrist -2.4774261222678966
rhand -22.636866519577413 28.742776117046013
rfingers 7.125020000000064
rthumb 3.8011238682402464 -1.6117309553970003
lclavicle -4.389587555596479E-15 -6.482012642324399E-15
lhumerus -41.338418300092165 2.4061021746723013 85.40142023981085
lradius 26.76508274122488
lwrist 4.121034212029304
lhand -32.322524526931446 21.4516051712491
lfingers 7.125020000000034
lthumb -5.489022175471124 52.24437018335197
rfemur -21.133399507174687 14.838248372274421 32.07220843038115
rtibia 32.731626071696056
rfoot -8.019926917520385 -10.922104941783733
rtoes -4.667877019919729
lfemur -8.081019062321332 -6.912020492997511 -19.35902786931408
ltibia 18.507630756885337
lfoot -9.191148406728669 0.18634081161106053
ltoes -5.699238410959319
191
root 0 0 0 -7.755752232693801 -6.186616966215302 -4.4014491713454165
lowerback 13.596358045321193 1.7074052608162127 4.3030832716147644
upperback 2.275302281847564 2.8939802206434235 1.4141615986447151
thorax -5.157320183051847 1.4429585071058657 -1.457769950614379
lowerneck -17.298891108479072 -3.756394659943191 -1.7839613541087547
upperneck 19.08726162902948 -4.884525353552201 0.8632549917024734
head 8.848369501381288 -2.3646405688105805 -0.033575504052106186
rclavicle 3.389724598708084E-15 1.0545792640459063E-16
rhumerus -47.22871031746511 -17.79560738721418 -72.84502092138999
rradius 25.914046622374297
rwrist -2.3729253792817744
rhand -22.610620652837348 28.753714740608416
rfingers 7.125020000000064
rthumb 3.826424944217653 -1.5941984738872854
lclavicle -4.1325605492274616E-15 -6.3239887313107696E-15
lhumerus -41.25851949956353 2.4934273277095618 85.179549216548
lradius 26.646454167432914
lwrist 3.5472627556416896
lhand -32.50331845883943 21.219466783246403
lfingers 7.125020000000035
lthumb -5.657908834388152 52.051745052715006
rfemur -20.88925183557724 14.27053844817894 31.37128192939815
rtibia 34.0258770185957
rfoot -7.037629903265 -11.459055320762873
rtoes -4.911602533960977
lfemur -7.164509800455008 -6.848609300709667 -19.71916566752565
ltibia 17.848068898418187
lfoot -9.739765405325327 0.33899574108022534
ltoes -5.278038223951908
192
root 0 0 0 -7.688495384696189 -5.547541351682593 -4.050951043012696
lowerback 13.530725012897914 1.6003417885621056 3.9509964225414667
upperback 2.2738092719505083 2.720446342533135 1.3884203182666743
thorax -5.114695428527156 1.3632894433291267 -1.2638653033298946
lowerneck -17.35183302094938 -3.728216682990725 -1.8249551610752508
upperneck 19.00619098052982 -4.822520275052769 0.8462853377916564
head 8.829167219497156 -2.3401435593423403 -0.02622468176801851
rclavicle 3.4704076083677335E-15 3.560881380612948E-16
rhumerus -47.40939667420093 -17.83913359553507 -72.92933579926816
rradius 25.83143523902504
rwrist -2.367949400295771
rhand -22.556189843664686 28.72035682683522
rfingers 7.125020000000064
rthumb 3.878186140006214 -1.6200786316388296
lclavicle -4.003317996963832E-15 -6.185303529208014E-15
lhumerus -41.19795219456937 2.534692650409884 85.05866392354716
lradius 26.554223016435728
lwrist 3.1981331032634266
lhand -32.60100268921471 21.061032480778124
lfingers 7.125020000000035
lthumb -5.74901373606728 51.91530370040428
rfemur -20.85345515726071 13.966816762481528 31.00854372124752
rtibia 34.7569339476363
rfoot -6.496092198393441 -11.88488302061681
rtoes -5.01750254979585
lfemur -6.510306453441345 -6.809690083788839 -20.02332997503265
ltibia 17.76423900478353
lfoot -10.047387557321041 0.34802002912570273
ltoes -5.171115093040781
